<mxfile host="app.diagrams.net" modified="2023-07-08T05:01:51.296Z" agent="Mozilla/5.0 (Macintosh; Intel Mac OS X 10_15_7) AppleWebKit/537.36 (KHTML, like Gecko) Chrome/114.0.0.0 Safari/537.36" version="21.6.1" etag="INKoxQkCU3FMgTbMoA4J" type="github">
  <diagram name="페이지-1" id="9X6DOZJFr2g4MHZymgnw">
    <mxGraphModel>
      <root>
        <mxCell id="0" />
        <mxCell id="1" parent="0" />
      </root>
    </mxGraphModel>
  </diagram>
</mxfile>
